<svg width="41" height="38" viewBox="0 0 41 38" fill="none" xmlns="http://www.w3.org/2000/svg">
<path d="M32.4583 23.75H39.2916V4.75H32.4583M25.6249 4.75H10.2499C8.832 4.75 7.61908 5.54167 7.10658 6.68167L1.94742 17.8442C1.79367 18.2083 1.70825 18.5883 1.70825 19V22.1667C1.70825 23.0065 2.06822 23.812 2.70897 24.4058C3.34972 24.9997 4.21876 25.3333 5.12492 25.3333H15.9045L14.2816 32.5692C14.2474 32.7275 14.2303 32.8858 14.2303 33.06C14.2303 33.725 14.5208 34.3108 14.982 34.7383L16.7928 36.4167L28.0337 25.9825C28.6658 25.4125 29.0416 24.6208 29.0416 23.75V7.91667C29.0416 7.07681 28.6816 6.27136 28.0409 5.67749C27.4001 5.08363 26.5311 4.75 25.6249 4.75Z" fill="#FF3A00"/>
</svg>
