<svg width="41" height="38" viewBox="0 0 41 38" fill="none" xmlns="http://www.w3.org/2000/svg">
<path d="M32.4583 23.75V4.75H39.2916V23.75H32.4583ZM25.6249 4.75C26.5311 4.75 27.4001 5.08363 28.0409 5.67749C28.6816 6.27136 29.0416 7.07681 29.0416 7.91667V23.75C29.0416 24.6208 28.6658 25.4125 28.0337 25.9825L16.7928 36.4167L14.982 34.7383C14.5208 34.3108 14.2303 33.725 14.2303 33.06L14.2816 32.5692L15.9045 25.3333H5.12492C4.21876 25.3333 3.34972 24.9997 2.70897 24.4058C2.06822 23.812 1.70825 23.0065 1.70825 22.1667V19C1.70825 18.5883 1.79367 18.2083 1.94742 17.8442L7.10658 6.68167C7.61908 5.54167 8.832 4.75 10.2499 4.75H25.6249ZM25.6249 7.91667H10.1987L5.12492 19V22.1667H20.1241L18.1937 30.59L25.6249 23.7025V7.91667Z" fill="#FF3A00"/>
</svg>
