<svg width="41" height="38" viewBox="0 0 41 38" fill="none" xmlns="http://www.w3.org/2000/svg">
<path d="M8.54158 14.2499V33.2499H1.70825V14.2499H8.54158ZM15.3749 33.2499C14.4688 33.2499 13.5997 32.9163 12.959 32.3224C12.3182 31.7286 11.9583 30.9231 11.9583 30.0833V14.2499C11.9583 13.3791 12.3341 12.5874 12.9662 12.0174L24.207 1.58325L26.0178 3.26159C26.4791 3.68909 26.7695 4.27492 26.7695 4.92408L26.7183 5.43075L25.0953 12.6666H35.8749C36.7811 12.6666 37.6501 13.0002 38.2909 13.5941C38.9316 14.1879 39.2916 14.9934 39.2916 15.8333V18.9999C39.2916 19.4116 39.2062 19.7916 39.0524 20.1558L33.8933 31.3183C33.3808 32.4583 32.1678 33.2499 30.7499 33.2499H15.3749ZM15.3749 30.0833H30.8012L35.8749 18.9999V15.8333H20.8587L22.7891 7.40992L15.3749 14.2974V30.0833Z" fill="#61A0FF"/>
</svg>
