<svg width="30" height="29" viewBox="0 0 30 29" fill="none" xmlns="http://www.w3.org/2000/svg">
<path fill-rule="evenodd" clip-rule="evenodd" d="M2.5 14.5001C2.5 7.82646 8.09625 2.41675 15 2.41675C21.9037 2.41675 27.5 7.82646 27.5 14.5001C27.5 21.1737 21.9037 26.5834 15 26.5834C8.09625 26.5834 2.5 21.1737 2.5 14.5001ZM15 4.83341C12.3478 4.83341 9.8043 5.85186 7.92893 7.66472C6.05357 9.47757 5 11.9363 5 14.5001C5 17.0638 6.05357 19.5226 7.92893 21.3354C9.8043 23.1483 12.3478 24.1667 15 24.1667C17.6522 24.1667 20.1957 23.1483 22.0711 21.3354C23.9464 19.5226 25 17.0638 25 14.5001C25 11.9363 23.9464 9.47757 22.0711 7.66472C20.1957 5.85186 17.6522 4.83341 15 4.83341Z" fill="black"/>
<path fill-rule="evenodd" clip-rule="evenodd" d="M16.25 8.45833C16.25 8.13786 16.1183 7.83052 15.8839 7.60391C15.6495 7.37731 15.3315 7.25 15 7.25C14.6685 7.25 14.3505 7.37731 14.1161 7.60391C13.8817 7.83052 13.75 8.13786 13.75 8.45833V13.2917H8.75C8.41848 13.2917 8.10054 13.419 7.86612 13.6456C7.6317 13.8722 7.5 14.1795 7.5 14.5C7.5 14.8205 7.6317 15.1278 7.86612 15.3544C8.10054 15.581 8.41848 15.7083 8.75 15.7083H13.75V20.5417C13.75 20.8621 13.8817 21.1695 14.1161 21.3961C14.3505 21.6227 14.6685 21.75 15 21.75C15.3315 21.75 15.6495 21.6227 15.8839 21.3961C16.1183 21.1695 16.25 20.8621 16.25 20.5417V15.7083H21.25C21.5815 15.7083 21.8995 15.581 22.1339 15.3544C22.3683 15.1278 22.5 14.8205 22.5 14.5C22.5 14.1795 22.3683 13.8722 22.1339 13.6456C21.8995 13.419 21.5815 13.2917 21.25 13.2917H16.25V8.45833Z" fill="black"/>
</svg>
