<svg width="35" height="34" viewBox="0 0 35 34" fill="none" xmlns="http://www.w3.org/2000/svg">
<path d="M30.027 14.1666H18.4479C17.7427 12.2266 16.3375 10.6006 14.4927 9.58988C12.6478 8.57921 10.4884 8.25238 8.41454 8.66996C5.07496 9.32163 2.36246 11.9283 1.66246 15.1583C1.37911 16.401 1.38655 17.6896 1.68425 18.9291C1.98195 20.1686 2.5623 21.3273 3.38249 22.3199C4.20269 23.3124 5.2418 24.1134 6.42318 24.6638C7.60456 25.2142 8.89807 25.5 10.2083 25.5C12.0165 25.5 13.7802 24.955 15.2561 23.94C16.7319 22.925 17.8471 21.4901 18.4479 19.8333H18.9583L20.8395 21.6608C21.4083 22.2133 22.327 22.2133 22.8958 21.6608L24.7916 19.8333L26.6729 21.6608C27.2416 22.2133 28.175 22.2133 28.7437 21.6608L32.5208 17.9633C32.6567 17.8308 32.7642 17.6734 32.8371 17.5002C32.91 17.3271 32.9469 17.1416 32.9455 16.9545C32.9441 16.7674 32.9046 16.5825 32.8292 16.4103C32.7538 16.2382 32.644 16.0823 32.5062 15.9516L31.0625 14.5775C30.7708 14.3083 30.4062 14.1666 30.027 14.1666ZM10.2083 21.25C7.80204 21.25 5.83329 19.3375 5.83329 17C5.83329 14.6625 7.80204 12.75 10.2083 12.75C12.6145 12.75 14.5833 14.6625 14.5833 17C14.5833 19.3375 12.6145 21.25 10.2083 21.25Z" fill="black"/>
</svg>
