<svg width="35" height="33" viewBox="0 0 35 33" fill="none" xmlns="http://www.w3.org/2000/svg">
<path fill-rule="evenodd" clip-rule="evenodd" d="M11.6667 9.625C11.6667 8.16631 12.2812 6.76736 13.3752 5.73591C14.4692 4.70446 15.9529 4.125 17.5 4.125C19.0471 4.125 20.5308 4.70446 21.6248 5.73591C22.7188 6.76736 23.3333 8.16631 23.3333 9.625C23.3333 11.0837 22.7188 12.4826 21.6248 13.5141C20.5308 14.5455 19.0471 15.125 17.5 15.125C15.9529 15.125 14.4692 14.5455 13.3752 13.5141C12.2812 12.4826 11.6667 11.0837 11.6667 9.625ZM11.6667 17.875C9.7328 17.875 7.87813 18.5993 6.51068 19.8886C5.14323 21.178 4.375 22.9266 4.375 24.75C4.375 25.844 4.83594 26.8932 5.65641 27.6668C6.47688 28.4404 7.58968 28.875 8.75 28.875H26.25C27.4103 28.875 28.5231 28.4404 29.3436 27.6668C30.1641 26.8932 30.625 25.844 30.625 24.75C30.625 22.9266 29.8568 21.178 28.4893 19.8886C27.1219 18.5993 25.2672 17.875 23.3333 17.875H11.6667Z" fill="black"/>
</svg>
