<svg width="34" height="34" viewBox="0 0 34 34" fill="none" xmlns="http://www.w3.org/2000/svg">
<path d="M16.9999 17.3315H3.89575C3.89575 23.8595 12.1103 29.4724 12.1103 29.4724H16.9999" stroke="black" stroke-linecap="round" stroke-linejoin="round"/>
<path d="M7.70947 18.8233C7.70947 23.6343 13.1126 27.1845 13.1126 27.1845M17 17.3315H30.1041C30.1041 23.8595 21.8896 29.4724 21.8896 29.4724H17M9.98322 17.3315C9.02981 13.7623 15.4048 11.3086 21.1253 10.5507L21.6849 9.52075L23.9402 12.262L22.7028 12.4632C22.0971 14.4536 19.0655 17.3315 19.0655 17.3315" stroke="black" stroke-linecap="round" stroke-linejoin="round"/>
<path d="M10.9861 17.3316C11.1901 15.4942 13.3208 13.4258 21.4496 10.9431" stroke="black" stroke-linecap="round" stroke-linejoin="round"/>
<path d="M21.6593 11.1988C18.5852 12.7387 15.001 14.5082 12.4893 17.3316M22.2593 11.9263C19.0647 16.2655 16.9999 17.3316 16.9999 17.3316M15.2326 17.3316C17.1593 16.2053 21.9547 11.5558 21.9547 11.5558M23.4295 11.6543L29.2031 6.97575C29.298 6.89901 29.3769 6.8043 29.4351 6.69704C29.4934 6.58978 29.5299 6.47208 29.5426 6.35068C29.5553 6.22928 29.5439 6.10657 29.5091 5.98957C29.4743 5.87257 29.4168 5.7636 29.3398 5.66887C29.263 5.57413 29.1683 5.49544 29.0611 5.4373C28.9539 5.37915 28.8363 5.34269 28.715 5.33C28.5937 5.3173 28.4711 5.32862 28.3542 5.36331C28.2373 5.398 28.1284 5.45538 28.0336 5.53217L22.2593 10.2107" stroke="black" stroke-linecap="round" stroke-linejoin="round"/>
<path d="M21.126 10.5505L22.7027 12.463" stroke="black" stroke-linecap="round" stroke-linejoin="round"/>
</svg>
