<svg width="58" height="56" viewBox="0 0 58 56" fill="none" xmlns="http://www.w3.org/2000/svg">
<mask id="path-1-outside-1_88_942" maskUnits="userSpaceOnUse" x="7.68848" y="7.38879" width="43" height="41" fill="black">
<rect fill="white" x="7.68848" y="7.38879" width="43" height="41"/>
<path d="M8.69138 9.78879C8.69138 9.41749 8.84414 9.06139 9.11607 8.79884C9.388 8.53629 9.75681 8.38879 10.1414 8.38879H11.4116C13.5199 8.38879 14.7321 9.71319 15.4339 11.0348C15.9124 11.9392 16.2575 13.0424 16.5446 14H46.4001C46.8482 14.0001 47.2901 14.1005 47.6913 14.2933C48.0925 14.486 48.4419 14.7659 48.7122 15.111C48.9825 15.4561 49.1663 15.8569 49.2492 16.2821C49.3321 16.7073 49.3118 17.1453 49.1899 17.5616L44.8515 32.3316C44.5064 33.5034 43.7749 34.5346 42.768 35.2688C41.7611 36.003 40.5337 36.4001 39.2719 36.4H24.5428C23.2705 36.4004 22.0333 35.9969 21.0219 35.2516C20.0105 34.5063 19.281 33.4606 18.9458 32.2756L17.084 25.6816C17.0733 25.652 17.0636 25.6222 17.055 25.592L14.0651 15.8004L13.7751 14.8568C13.4851 13.888 13.2299 13.0312 12.8471 12.3116C12.386 11.4436 11.9626 11.1916 11.4087 11.1916H10.1385C9.75391 11.1916 9.3851 11.0441 9.11317 10.7815C8.84124 10.519 8.68848 10.1629 8.68848 9.79159M19.8506 24.836L21.7443 31.5448C21.9122 32.137 22.277 32.6596 22.7827 33.032C23.2884 33.4043 23.9068 33.6059 24.5428 33.6056H39.2748C39.9054 33.605 40.5186 33.4059 41.0214 33.0386C41.5243 32.6713 41.8895 32.1557 42.0617 31.57L46.4001 16.8H17.4001L19.8506 24.836ZM29.0001 43.3972C29.0001 44.5111 28.5418 45.5794 27.726 46.367C26.9102 47.1547 25.8038 47.5972 24.6501 47.5972C23.4964 47.5972 22.3899 47.1547 21.5742 46.367C20.7584 45.5794 20.3001 44.5111 20.3001 43.3972C20.3001 42.2833 20.7584 41.215 21.5742 40.4273C22.3899 39.6397 23.4964 39.1972 24.6501 39.1972C25.8038 39.1972 26.9102 39.6397 27.726 40.4273C28.5418 41.215 29.0001 42.2833 29.0001 43.3972ZM26.1001 43.3972C26.1001 43.0259 25.9473 42.6698 25.6754 42.4072C25.4035 42.1447 25.0346 41.9972 24.6501 41.9972C24.2655 41.9972 23.8967 42.1447 23.6248 42.4072C23.3528 42.6698 23.2001 43.0259 23.2001 43.3972C23.2001 43.7685 23.3528 44.1246 23.6248 44.3871C23.8967 44.6497 24.2655 44.7972 24.6501 44.7972C25.0346 44.7972 25.4035 44.6497 25.6754 44.3871C25.9473 44.1246 26.1001 43.7685 26.1001 43.3972ZM43.5001 43.3972C43.5001 44.5111 43.0418 45.5794 42.226 46.367C41.4102 47.1547 40.3038 47.5972 39.1501 47.5972C37.9964 47.5972 36.8899 47.1547 36.0742 46.367C35.2584 45.5794 34.8001 44.5111 34.8001 43.3972C34.8001 42.2833 35.2584 41.215 36.0742 40.4273C36.8899 39.6397 37.9964 39.1972 39.1501 39.1972C40.3038 39.1972 41.4102 39.6397 42.226 40.4273C43.0418 41.215 43.5001 42.2833 43.5001 43.3972ZM40.6001 43.3972C40.6001 43.0259 40.4473 42.6698 40.1754 42.4072C39.9035 42.1447 39.5346 41.9972 39.1501 41.9972C38.7655 41.9972 38.3967 42.1447 38.1248 42.4072C37.8528 42.6698 37.7001 43.0259 37.7001 43.3972C37.7001 43.7685 37.8528 44.1246 38.1248 44.3871C38.3967 44.6497 38.7655 44.7972 39.1501 44.7972C39.5346 44.7972 39.9035 44.6497 40.1754 44.3871C40.4473 44.1246 40.6001 43.7685 40.6001 43.3972Z"/>
</mask>
<path d="M8.69138 9.78879C8.69138 9.41749 8.84414 9.06139 9.11607 8.79884C9.388 8.53629 9.75681 8.38879 10.1414 8.38879H11.4116C13.5199 8.38879 14.7321 9.71319 15.4339 11.0348C15.9124 11.9392 16.2575 13.0424 16.5446 14H46.4001C46.8482 14.0001 47.2901 14.1005 47.6913 14.2933C48.0925 14.486 48.4419 14.7659 48.7122 15.111C48.9825 15.4561 49.1663 15.8569 49.2492 16.2821C49.3321 16.7073 49.3118 17.1453 49.1899 17.5616L44.8515 32.3316C44.5064 33.5034 43.7749 34.5346 42.768 35.2688C41.7611 36.003 40.5337 36.4001 39.2719 36.4H24.5428C23.2705 36.4004 22.0333 35.9969 21.0219 35.2516C20.0105 34.5063 19.281 33.4606 18.9458 32.2756L17.084 25.6816C17.0733 25.652 17.0636 25.6222 17.055 25.592L14.0651 15.8004L13.7751 14.8568C13.4851 13.888 13.2299 13.0312 12.8471 12.3116C12.386 11.4436 11.9626 11.1916 11.4087 11.1916H10.1385C9.75391 11.1916 9.3851 11.0441 9.11317 10.7815C8.84124 10.519 8.68848 10.1629 8.68848 9.79159M19.8506 24.836L21.7443 31.5448C21.9122 32.137 22.277 32.6596 22.7827 33.032C23.2884 33.4043 23.9068 33.6059 24.5428 33.6056H39.2748C39.9054 33.605 40.5186 33.4059 41.0214 33.0386C41.5243 32.6713 41.8895 32.1557 42.0617 31.57L46.4001 16.8H17.4001L19.8506 24.836ZM29.0001 43.3972C29.0001 44.5111 28.5418 45.5794 27.726 46.367C26.9102 47.1547 25.8038 47.5972 24.6501 47.5972C23.4964 47.5972 22.3899 47.1547 21.5742 46.367C20.7584 45.5794 20.3001 44.5111 20.3001 43.3972C20.3001 42.2833 20.7584 41.215 21.5742 40.4273C22.3899 39.6397 23.4964 39.1972 24.6501 39.1972C25.8038 39.1972 26.9102 39.6397 27.726 40.4273C28.5418 41.215 29.0001 42.2833 29.0001 43.3972ZM26.1001 43.3972C26.1001 43.0259 25.9473 42.6698 25.6754 42.4072C25.4035 42.1447 25.0346 41.9972 24.6501 41.9972C24.2655 41.9972 23.8967 42.1447 23.6248 42.4072C23.3528 42.6698 23.2001 43.0259 23.2001 43.3972C23.2001 43.7685 23.3528 44.1246 23.6248 44.3871C23.8967 44.6497 24.2655 44.7972 24.6501 44.7972C25.0346 44.7972 25.4035 44.6497 25.6754 44.3871C25.9473 44.1246 26.1001 43.7685 26.1001 43.3972ZM43.5001 43.3972C43.5001 44.5111 43.0418 45.5794 42.226 46.367C41.4102 47.1547 40.3038 47.5972 39.1501 47.5972C37.9964 47.5972 36.8899 47.1547 36.0742 46.367C35.2584 45.5794 34.8001 44.5111 34.8001 43.3972C34.8001 42.2833 35.2584 41.215 36.0742 40.4273C36.8899 39.6397 37.9964 39.1972 39.1501 39.1972C40.3038 39.1972 41.4102 39.6397 42.226 40.4273C43.0418 41.215 43.5001 42.2833 43.5001 43.3972ZM40.6001 43.3972C40.6001 43.0259 40.4473 42.6698 40.1754 42.4072C39.9035 42.1447 39.5346 41.9972 39.1501 41.9972C38.7655 41.9972 38.3967 42.1447 38.1248 42.4072C37.8528 42.6698 37.7001 43.0259 37.7001 43.3972C37.7001 43.7685 37.8528 44.1246 38.1248 44.3871C38.3967 44.6497 38.7655 44.7972 39.1501 44.7972C39.5346 44.7972 39.9035 44.6497 40.1754 44.3871C40.4473 44.1246 40.6001 43.7685 40.6001 43.3972Z" fill="black"/>
<path d="M15.4339 11.0348L15.8758 10.801L15.8755 10.8003L15.4339 11.0348ZM16.5446 14L16.0656 14.1436L16.1725 14.5H16.5446V14ZM46.4001 14L46.4002 13.5H46.4001V14ZM49.1899 17.5616L49.6696 17.7025L49.6697 17.7021L49.1899 17.5616ZM44.8515 32.3316L45.3311 32.4728L45.3312 32.4725L44.8515 32.3316ZM39.2719 36.4L39.2719 35.9H39.2719V36.4ZM24.5428 36.4L24.5428 35.9L24.5426 35.9L24.5428 36.4ZM18.9458 32.2756L18.4646 32.4115L18.4647 32.4117L18.9458 32.2756ZM17.084 25.6816L17.5652 25.5457L17.5603 25.5285L17.5542 25.5117L17.084 25.6816ZM17.055 25.592L17.5357 25.4541L17.5332 25.446L17.055 25.592ZM14.0651 15.8004L14.5433 15.6544L14.543 15.6535L14.0651 15.8004ZM13.7751 14.8568L13.2961 15.0002L13.2971 15.0037L13.7751 14.8568ZM12.8471 12.3116L12.4055 12.5462L12.4056 12.5464L12.8471 12.3116ZM19.8506 24.836L20.3319 24.7001L20.3288 24.6902L19.8506 24.836ZM21.7443 31.5448L21.2631 31.6806L21.2632 31.6812L21.7443 31.5448ZM24.5428 33.6056L24.5428 33.1056L24.5425 33.1056L24.5428 33.6056ZM39.2748 33.6056L39.2748 34.1056L39.2753 34.1056L39.2748 33.6056ZM41.0214 33.0386L41.3164 33.4424L41.3164 33.4424L41.0214 33.0386ZM42.0617 31.57L42.5414 31.711L42.5414 31.7109L42.0617 31.57ZM46.4001 16.8L46.8798 16.9409L47.0681 16.3H46.4001V16.8ZM17.4001 16.8V16.3H16.7249L16.9218 16.9458L17.4001 16.8ZM29.0001 43.3972H29.5001H29.0001ZM24.6501 39.1972V38.6972V39.1972ZM43.5001 43.3972H44.0001H43.5001ZM34.8001 43.3972H34.3001H34.8001ZM39.1501 39.1972V38.6972V39.1972ZM9.19138 9.78879C9.19138 9.55587 9.28704 9.32879 9.46337 9.15854L8.76877 8.43914C8.40124 8.794 8.19138 9.27911 8.19138 9.78879H9.19138ZM9.46337 9.15854C9.64029 8.98773 9.88387 8.88879 10.1414 8.88879V7.88879C9.62976 7.88879 9.13571 8.08486 8.76877 8.43914L9.46337 9.15854ZM10.1414 8.88879H11.4116V7.88879H10.1414V8.88879ZM11.4116 8.88879C13.2588 8.88879 14.3345 10.0307 14.9923 11.2693L15.8755 10.8003C15.1296 9.39571 13.7809 7.88879 11.4116 7.88879V8.88879ZM14.9919 11.2686C15.4443 12.1236 15.7772 13.1814 16.0656 14.1436L17.0235 13.8564C16.7378 12.9034 16.3805 11.7548 15.8758 10.801L14.9919 11.2686ZM16.5446 14.5H46.4001V13.5H16.5446V14.5ZM46.3999 14.5C46.7736 14.5001 47.1416 14.5839 47.4748 14.7439L47.9079 13.8426C47.4387 13.6172 46.9227 13.5001 46.4002 13.5L46.3999 14.5ZM47.4748 14.7439C47.8079 14.904 48.0964 15.1356 48.3186 15.4193L49.1058 14.8027C48.7875 14.3963 48.3771 14.0681 47.9079 13.8426L47.4748 14.7439ZM48.3186 15.4193C48.5408 15.703 48.6908 16.0311 48.7584 16.3778L49.7399 16.1865C49.6418 15.6828 49.4243 15.2092 49.1058 14.8027L48.3186 15.4193ZM48.7584 16.3778C48.826 16.7244 48.8095 17.0814 48.71 17.4211L49.6697 17.7021C49.814 17.2091 49.8381 16.6902 49.7399 16.1865L48.7584 16.3778ZM48.7101 17.4207L44.3717 32.1907L45.3312 32.4725L49.6696 17.7025L48.7101 17.4207ZM44.3718 32.1903C44.0585 33.2543 43.3933 34.194 42.4734 34.8648L43.0626 35.6728C44.1565 34.8752 44.9543 33.7525 45.3311 32.4728L44.3718 32.1903ZM42.4734 34.8648C41.5532 35.5358 40.4292 35.9001 39.2719 35.9L39.2718 36.9C40.6381 36.9002 41.9689 36.4703 43.0626 35.6728L42.4734 34.8648ZM39.2719 35.9H24.5428V36.9H39.2719V35.9ZM24.5426 35.9C23.3756 35.9004 22.2428 35.5302 21.3185 34.8491L20.7253 35.6541C21.8239 36.4636 23.1653 36.9004 24.5429 36.9L24.5426 35.9ZM21.3185 34.8491C20.3946 34.1682 19.7313 33.2154 19.4269 32.1395L18.4647 32.4117C18.8308 33.7058 19.6265 34.8444 20.7253 35.6541L21.3185 34.8491ZM19.427 32.1397L17.5652 25.5457L16.6028 25.8175L18.4646 32.4115L19.427 32.1397ZM17.5542 25.5117C17.5474 25.4927 17.5411 25.4735 17.5356 25.4541L16.5744 25.7299C16.5861 25.7708 16.5992 25.8114 16.6137 25.8515L17.5542 25.5117ZM17.5332 25.446L14.5433 15.6544L13.5869 15.9464L16.5768 25.738L17.5332 25.446ZM14.543 15.6535L14.253 14.7099L13.2971 15.0037L13.5871 15.9473L14.543 15.6535ZM14.2541 14.7134C13.9681 13.7582 13.6993 12.8491 13.2885 12.0768L12.4056 12.5464C12.7604 13.2133 13.002 14.0178 13.2961 15.0002L14.2541 14.7134ZM13.2886 12.077C13.0413 11.6115 12.7774 11.258 12.4593 11.0236C12.1255 10.7776 11.7719 10.6916 11.4087 10.6916V11.6916C11.5993 11.6916 11.7344 11.7316 11.8661 11.8286C12.0134 11.9372 12.1917 12.1437 12.4055 12.5462L13.2886 12.077ZM11.4087 10.6916H10.1385V11.6916H11.4087V10.6916ZM10.1385 10.6916C9.88097 10.6916 9.63739 10.5927 9.46047 10.4218L8.76587 11.1412C9.13281 11.4955 9.62686 11.6916 10.1385 11.6916V10.6916ZM9.46047 10.4218C9.28414 10.2516 9.18848 10.0245 9.18848 9.79159H8.18848C8.18848 10.3013 8.39834 10.7864 8.76587 11.1412L9.46047 10.4218ZM19.3694 24.9718L21.2631 31.6806L22.2255 31.409L20.3318 24.7002L19.3694 24.9718ZM21.2632 31.6812C21.462 32.3825 21.8931 32.9978 22.4862 33.4346L23.0792 32.6293C22.6609 32.3213 22.3623 31.8916 22.2253 31.4084L21.2632 31.6812ZM22.4862 33.4346C23.079 33.8711 23.8017 34.1059 24.543 34.1056L24.5425 33.1056C24.0119 33.1058 23.4977 32.9375 23.0792 32.6293L22.4862 33.4346ZM24.5428 34.1056H39.2748V33.1056H24.5428V34.1056ZM39.2753 34.1056C40.0103 34.1049 40.7268 33.873 41.3164 33.4424L40.7265 32.6348C40.3103 32.9389 39.8004 33.1051 39.2743 33.1056L39.2753 34.1056ZM41.3164 33.4424C41.9061 33.0116 42.3375 32.4045 42.5414 31.711L41.582 31.429C41.4415 31.9069 41.1425 32.331 40.7265 32.6348L41.3164 33.4424ZM42.5414 31.7109L46.8798 16.9409L45.9203 16.6591L41.5819 31.4291L42.5414 31.7109ZM46.4001 16.3H17.4001V17.3H46.4001V16.3ZM16.9218 16.9458L19.3723 24.9818L20.3288 24.6902L17.8783 16.6542L16.9218 16.9458ZM28.5001 43.3972C28.5001 44.3727 28.0989 45.312 27.3787 46.0073L28.0733 46.7267C28.9847 45.8468 29.5001 44.6495 29.5001 43.3972H28.5001ZM27.3787 46.0073C26.6579 46.7033 25.6767 47.0972 24.6501 47.0972V48.0972C25.9308 48.0972 27.1625 47.6061 28.0733 46.7267L27.3787 46.0073ZM24.6501 47.0972C23.6234 47.0972 22.6422 46.7033 21.9215 46.0073L21.2269 46.7267C22.1377 47.6061 23.3693 48.0972 24.6501 48.0972V47.0972ZM21.9215 46.0073C21.2013 45.312 20.8001 44.3727 20.8001 43.3972H19.8001C19.8001 44.6495 20.3155 45.8468 21.2269 46.7267L21.9215 46.0073ZM20.8001 43.3972C20.8001 42.4217 21.2013 41.4824 21.9215 40.787L21.2269 40.0676C20.3155 40.9476 19.8001 42.1449 19.8001 43.3972H20.8001ZM21.9215 40.787C22.6422 40.0911 23.6234 39.6972 24.6501 39.6972V38.6972C23.3693 38.6972 22.1377 39.1883 21.2269 40.0676L21.9215 40.787ZM24.6501 39.6972C25.6767 39.6972 26.6579 40.0911 27.3787 40.787L28.0733 40.0676C27.1625 39.1883 25.9308 38.6972 24.6501 38.6972V39.6972ZM27.3787 40.787C28.0989 41.4824 28.5001 42.4217 28.5001 43.3972H29.5001C29.5001 42.1449 28.9847 40.9476 28.0733 40.0676L27.3787 40.787ZM26.6001 43.3972C26.6001 42.8875 26.3902 42.4024 26.0227 42.0475L25.3281 42.7669C25.5044 42.9372 25.6001 43.1643 25.6001 43.3972H26.6001ZM26.0227 42.0475C25.6557 41.6933 25.1617 41.4972 24.6501 41.4972V42.4972C24.9076 42.4972 25.1512 42.5961 25.3281 42.7669L26.0227 42.0475ZM24.6501 41.4972C24.1385 41.4972 23.6444 41.6933 23.2775 42.0475L23.9721 42.7669C24.149 42.5961 24.3926 42.4972 24.6501 42.4972V41.4972ZM23.2775 42.0475C22.9099 42.4024 22.7001 42.8875 22.7001 43.3972H23.7001C23.7001 43.1643 23.7957 42.9372 23.9721 42.7669L23.2775 42.0475ZM22.7001 43.3972C22.7001 43.9069 22.9099 44.392 23.2775 44.7468L23.9721 44.0274C23.7957 43.8572 23.7001 43.6301 23.7001 43.3972H22.7001ZM23.2775 44.7468C23.6444 45.1011 24.1385 45.2972 24.6501 45.2972V44.2972C24.3926 44.2972 24.149 44.1983 23.9721 44.0274L23.2775 44.7468ZM24.6501 45.2972C25.1617 45.2972 25.6557 45.1011 26.0227 44.7468L25.3281 44.0274C25.1512 44.1983 24.9076 44.2972 24.6501 44.2972V45.2972ZM26.0227 44.7468C26.3902 44.392 26.6001 43.9069 26.6001 43.3972H25.6001C25.6001 43.6301 25.5044 43.8572 25.3281 44.0274L26.0227 44.7468ZM43.0001 43.3972C43.0001 44.3727 42.5989 45.312 41.8787 46.0073L42.5733 46.7267C43.4847 45.8468 44.0001 44.6495 44.0001 43.3972H43.0001ZM41.8787 46.0073C41.1579 46.7033 40.1767 47.0972 39.1501 47.0972V48.0972C40.4308 48.0972 41.6625 47.6061 42.5733 46.7267L41.8787 46.0073ZM39.1501 47.0972C38.1234 47.0972 37.1422 46.7033 36.4215 46.0073L35.7269 46.7267C36.6377 47.6061 37.8693 48.0972 39.1501 48.0972V47.0972ZM36.4215 46.0073C35.7013 45.312 35.3001 44.3727 35.3001 43.3972H34.3001C34.3001 44.6495 34.8155 45.8468 35.7269 46.7267L36.4215 46.0073ZM35.3001 43.3972C35.3001 42.4217 35.7013 41.4824 36.4215 40.787L35.7269 40.0676C34.8155 40.9476 34.3001 42.1449 34.3001 43.3972H35.3001ZM36.4215 40.787C37.1422 40.0911 38.1234 39.6972 39.1501 39.6972V38.6972C37.8693 38.6972 36.6377 39.1883 35.7269 40.0676L36.4215 40.787ZM39.1501 39.6972C40.1767 39.6972 41.1579 40.0911 41.8787 40.787L42.5733 40.0676C41.6625 39.1883 40.4308 38.6972 39.1501 38.6972V39.6972ZM41.8787 40.787C42.5989 41.4824 43.0001 42.4217 43.0001 43.3972H44.0001C44.0001 42.1449 43.4847 40.9476 42.5733 40.0676L41.8787 40.787ZM41.1001 43.3972C41.1001 42.8875 40.8902 42.4024 40.5227 42.0475L39.8281 42.7669C40.0044 42.9372 40.1001 43.1643 40.1001 43.3972H41.1001ZM40.5227 42.0475C40.1557 41.6933 39.6617 41.4972 39.1501 41.4972V42.4972C39.4076 42.4972 39.6512 42.5961 39.8281 42.7669L40.5227 42.0475ZM39.1501 41.4972C38.6385 41.4972 38.1444 41.6933 37.7775 42.0475L38.4721 42.7669C38.649 42.5961 38.8926 42.4972 39.1501 42.4972V41.4972ZM37.7775 42.0475C37.4099 42.4024 37.2001 42.8875 37.2001 43.3972H38.2001C38.2001 43.1643 38.2957 42.9372 38.4721 42.7669L37.7775 42.0475ZM37.2001 43.3972C37.2001 43.9069 37.4099 44.392 37.7775 44.7468L38.4721 44.0274C38.2957 43.8572 38.2001 43.6301 38.2001 43.3972H37.2001ZM37.7775 44.7468C38.1444 45.1011 38.6385 45.2972 39.1501 45.2972V44.2972C38.8926 44.2972 38.649 44.1983 38.4721 44.0274L37.7775 44.7468ZM39.1501 45.2972C39.6617 45.2972 40.1557 45.1011 40.5227 44.7468L39.8281 44.0274C39.6512 44.1983 39.4076 44.2972 39.1501 44.2972V45.2972ZM40.5227 44.7468C40.8902 44.392 41.1001 43.9069 41.1001 43.3972H40.1001C40.1001 43.6301 40.0044 43.8572 39.8281 44.0274L40.5227 44.7468Z" fill="black" mask="url(#path-1-outside-1_88_942)"/>
</svg>
