<svg width="55" height="49" viewBox="0 0 55 49" fill="none" xmlns="http://www.w3.org/2000/svg">
<path fill-rule="evenodd" clip-rule="evenodd" d="M36.6668 18.3749C36.6668 20.5409 35.7011 22.6181 33.982 24.1496C32.2629 25.6812 29.9313 26.5416 27.5002 26.5416C25.069 26.5416 22.7374 25.6812 21.0184 24.1496C19.2993 22.6181 18.3335 20.5409 18.3335 18.3749C18.3335 16.209 19.2993 14.1318 21.0184 12.6002C22.7374 11.0687 25.069 10.2083 27.5002 10.2083C29.9313 10.2083 32.2629 11.0687 33.982 12.6002C35.7011 14.1318 36.6668 16.209 36.6668 18.3749ZM32.0835 18.3749C32.0835 19.4579 31.6006 20.4965 30.7411 21.2623C29.8815 22.028 28.7157 22.4583 27.5002 22.4583C26.2846 22.4583 25.1188 22.028 24.2593 21.2623C23.3997 20.4965 22.9168 19.4579 22.9168 18.3749C22.9168 17.292 23.3997 16.2533 24.2593 15.4876C25.1188 14.7218 26.2846 14.2916 27.5002 14.2916C28.7157 14.2916 29.8815 14.7218 30.7411 15.4876C31.6006 16.2533 32.0835 17.292 32.0835 18.3749Z" fill="black"/>
<path fill-rule="evenodd" clip-rule="evenodd" d="M27.5001 2.04163C13.5782 2.04163 2.29175 12.0968 2.29175 24.5C2.29175 36.9031 13.5782 46.9583 27.5001 46.9583C41.422 46.9583 52.7084 36.9031 52.7084 24.5C52.7084 12.0968 41.422 2.04163 27.5001 2.04163ZM6.87508 24.5C6.87508 28.767 8.50904 32.6952 11.2476 35.8149C13.1708 33.5648 15.6519 31.7412 18.4971 30.4868C21.3423 29.2323 24.4745 28.5808 27.649 28.5833C30.7825 28.5806 33.8753 29.2152 36.6918 30.4387C39.5083 31.6622 41.9742 33.4423 43.9015 35.6434C45.8871 33.3232 47.2241 30.6152 47.8017 27.7433C48.3793 24.8715 48.1811 21.9183 47.2233 19.1283C46.2655 16.3383 44.5758 13.7915 42.2939 11.6988C40.012 9.60606 37.2036 8.02751 34.101 7.09375C30.9983 6.15999 27.6907 5.89787 24.4518 6.32907C21.2129 6.76027 18.1359 7.8724 15.4752 9.57344C12.8145 11.2745 10.6467 13.5155 9.15123 16.1112C7.65573 18.7068 6.8755 21.5824 6.87508 24.5ZM27.5001 42.875C22.7654 42.8813 18.1736 41.4302 14.5017 38.7671C15.9797 36.8821 17.9469 35.3431 20.2359 34.2809C22.525 33.2188 25.0681 32.665 27.649 32.6666C30.1977 32.6648 32.7102 33.2048 34.9776 34.2416C37.2451 35.2785 39.2022 36.7823 40.6863 38.6283C36.986 41.3778 32.3185 42.881 27.5001 42.875Z" fill="black"/>
</svg>
