<svg width="32" height="30" viewBox="0 0 32 30" fill="none" xmlns="http://www.w3.org/2000/svg">
<path d="M17.3333 10V5C17.3333 4.64584 17.4613 4.34875 17.7173 4.10875C17.9733 3.86875 18.2898 3.74917 18.6667 3.75H26.6667C27.0445 3.75 27.3613 3.87 27.6173 4.11C27.8733 4.35 28.0009 4.64667 28 5V10C28 10.3542 27.872 10.6513 27.616 10.8913C27.36 11.1313 27.0436 11.2508 26.6667 11.25H18.6667C18.2889 11.25 17.972 11.13 17.716 10.89C17.46 10.65 17.3324 10.3533 17.3333 10ZM4 15V5C4 4.64584 4.128 4.34875 4.384 4.10875C4.64 3.86875 4.95645 3.74917 5.33334 3.75H13.3333C13.7111 3.75 14.028 3.87 14.284 4.11C14.54 4.35 14.6676 4.64667 14.6667 5V15C14.6667 15.3542 14.5387 15.6513 14.2827 15.8913C14.0267 16.1313 13.7102 16.2508 13.3333 16.25H5.33334C4.95556 16.25 4.63867 16.13 4.38267 15.89C4.12667 15.65 3.99912 15.3533 4 15ZM17.3333 25V15C17.3333 14.6458 17.4613 14.3488 17.7173 14.1088C17.9733 13.8688 18.2898 13.7492 18.6667 13.75H26.6667C27.0445 13.75 27.3613 13.87 27.6173 14.11C27.8733 14.35 28.0009 14.6467 28 15V25C28 25.3542 27.872 25.6513 27.616 25.8913C27.36 26.1313 27.0436 26.2508 26.6667 26.25H18.6667C18.2889 26.25 17.972 26.13 17.716 25.89C17.46 25.65 17.3324 25.3533 17.3333 25ZM4 25V20C4 19.6458 4.128 19.3488 4.384 19.1088C4.64 18.8688 4.95645 18.7492 5.33334 18.75H13.3333C13.7111 18.75 14.028 18.87 14.284 19.11C14.54 19.35 14.6676 19.6467 14.6667 20V25C14.6667 25.3542 14.5387 25.6513 14.2827 25.8913C14.0267 26.1313 13.7102 26.2508 13.3333 26.25H5.33334C4.95556 26.25 4.63867 26.13 4.38267 25.89C4.12667 25.65 3.99912 25.3533 4 25ZM6.66667 13.75H12V6.25H6.66667V13.75ZM20 23.75H25.3333V16.25H20V23.75ZM20 8.75H25.3333V6.25H20V8.75ZM6.66667 23.75H12V21.25H6.66667V23.75Z" fill="black"/>
</svg>
