<svg width="44" height="43" viewBox="0 0 44 43" fill="none" xmlns="http://www.w3.org/2000/svg">
<path d="M30.7287 18.8075C31.6321 18.8099 32.527 18.6372 33.3617 18.2992C34.1963 17.9613 34.9541 17.465 35.591 16.8389L42.2082 10.3763C42.7316 9.86482 42.7797 9.03254 42.2813 8.49588C42.1561 8.36105 42.0043 8.25247 41.8349 8.17673C41.6656 8.10099 41.4822 8.05967 41.296 8.05527C41.1098 8.05087 40.9246 8.08349 40.7517 8.15114C40.5788 8.2188 40.4218 8.32008 40.2901 8.44885L34.3922 14.2085C34.1942 14.4018 33.9257 14.5104 33.6458 14.5104C33.366 14.5104 33.0975 14.4018 32.8995 14.2085C32.4878 13.807 32.5102 13.1285 32.921 12.727L38.7931 6.98836C38.9247 6.85971 39.0282 6.70629 39.0974 6.53739C39.1665 6.36848 39.1999 6.18761 39.1954 6.00575C39.1909 5.82388 39.1486 5.6448 39.0712 5.47935C38.9938 5.31391 38.8828 5.16556 38.7449 5.04328C38.4961 4.82271 38.1717 4.70134 37.8357 4.70314C37.455 4.7034 37.0899 4.85142 36.8208 5.11467L30.9539 10.8474C30.7558 11.0407 30.4874 11.1493 30.2075 11.1493C29.9276 11.1493 29.6592 11.0407 29.4611 10.8474C29.0503 10.446 29.0718 9.7674 29.4826 9.36596L35.3547 3.62898C35.4863 3.50034 35.5899 3.34692 35.659 3.17801C35.7282 3.00911 35.7615 2.82824 35.757 2.64637C35.7525 2.4645 35.7103 2.28542 35.6328 2.11998C35.5554 1.95454 35.4444 1.80618 35.3066 1.68391C35.0577 1.46333 34.7333 1.34196 34.3974 1.34377C34.0167 1.34421 33.6517 1.49221 33.3824 1.75529L26.7696 8.21789C26.1289 8.84052 25.6209 9.58119 25.2751 10.397C24.9294 11.2128 24.7526 12.0875 24.7552 12.9706V13.6618C24.7553 13.8385 24.7198 14.0135 24.6506 14.1768C24.5815 14.34 24.48 14.4884 24.3521 14.6133L21.2919 17.6048C21.26 17.6361 21.2221 17.6608 21.1803 17.6777C21.1386 17.6946 21.0939 17.7034 21.0487 17.7034C21.0035 17.7034 20.9588 17.6946 20.9171 17.6777C20.8753 17.6608 20.8374 17.6361 20.8055 17.6048L5.91425 3.05117C5.65724 2.79972 5.30875 2.65801 4.94508 2.65706C4.5814 2.65612 4.23216 2.79601 3.97378 3.04613C2.67183 4.30674 1.97659 6.08637 1.97659 8.19186C1.968 11.6688 3.838 15.6665 6.85698 18.6126L14.2003 25.7891C15.2441 26.807 16.6583 27.3788 18.1328 27.3789C18.6029 27.3791 19.0711 27.3204 19.5259 27.2042C19.6401 27.175 19.7576 27.16 19.8757 27.1597C20.2208 27.1598 20.5533 27.2873 20.8064 27.5167L21.7852 28.4002C22.0376 28.6522 22.1795 28.9906 22.1805 29.3433V29.8086C22.178 30.8663 22.6033 31.8821 23.3639 32.6347L31.1025 40.3251L31.1103 40.3335C31.9692 41.1728 33.1341 41.6443 34.3487 41.6442C35.5633 41.6441 36.7281 41.1725 37.5869 40.3331C38.4457 39.4937 38.9282 38.3553 38.9281 37.1683C38.928 35.9813 38.4454 34.8429 37.5865 34.0036L25.9867 22.6674C25.9547 22.6362 25.9294 22.5992 25.9121 22.5584C25.8948 22.5176 25.8859 22.4739 25.8859 22.4297C25.8859 22.3856 25.8948 22.3419 25.9121 22.3011C25.9294 22.2603 25.9547 22.2232 25.9867 22.192L29.0469 19.2014C29.1746 19.0765 29.3263 18.9774 29.4932 18.9098C29.6601 18.8422 29.839 18.8075 30.0197 18.8075H30.7287Z" fill="black"/>
<path d="M18.1329 30.0664C15.9315 30.062 13.8206 29.2095 12.2582 27.6939L11.0671 26.5298C10.9382 26.4042 10.7636 26.3336 10.5816 26.3336C10.3995 26.3336 10.2249 26.4042 10.096 26.5298L2.79134 33.6315C1.48938 34.9039 1.02446 36.7768 1.66899 38.611C1.70507 38.7143 1.74784 38.8153 1.79704 38.9133C2.66415 40.6484 4.34681 41.6563 6.18759 41.6563C6.82063 41.6578 7.44769 41.5365 8.03245 41.2995C8.6172 41.0625 9.14802 40.7145 9.59415 40.2756L19.336 30.7097C19.377 30.6688 19.4084 30.6197 19.428 30.5658C19.4476 30.5118 19.4549 30.4543 19.4495 30.3973V30.3755C19.4456 30.3231 19.431 30.272 19.4064 30.2253C19.3819 30.1787 19.3479 30.1373 19.3065 30.1038C19.2652 30.0703 19.2173 30.0453 19.1658 30.0304C19.1143 30.0154 19.0603 30.0108 19.0069 30.0169C18.7166 30.0483 18.4249 30.0649 18.1329 30.0664Z" fill="black"/>
</svg>
