<svg width="31" height="34" viewBox="0 0 31 34" fill="none" xmlns="http://www.w3.org/2000/svg">
<path d="M20.6666 24.0834V26.9167H2.58325V24.0834C2.58325 24.0834 2.58325 18.4167 11.6249 18.4167C20.6666 18.4167 20.6666 24.0834 20.6666 24.0834ZM16.1458 10.625C16.1458 9.64437 15.8806 8.68573 15.3839 7.87033C14.8871 7.05494 14.181 6.41942 13.355 6.04413C12.5289 5.66885 11.6199 5.57066 10.7429 5.76197C9.86599 5.95329 9.06046 6.42553 8.42821 7.11896C7.79596 7.8124 7.36539 8.69589 7.19095 9.65771C7.01651 10.6195 7.10604 11.6165 7.44821 12.5225C7.79038 13.4285 8.36983 14.2029 9.11328 14.7477C9.85673 15.2926 10.7308 15.5834 11.6249 15.5834C12.8239 15.5834 13.9738 15.061 14.8216 14.1311C15.6695 13.2012 16.1458 11.9401 16.1458 10.625ZM20.5891 18.4167C21.3831 19.0907 22.0329 19.9473 22.4926 20.9263C22.9523 21.9054 23.2108 22.983 23.2499 24.0834V26.9167H28.4166V24.0834C28.4166 24.0834 28.4166 18.9409 20.5891 18.4167ZM19.3749 5.6667C18.4858 5.66127 17.6163 5.9528 16.882 6.50253C17.6666 7.70491 18.0885 9.14644 18.0885 10.625C18.0885 12.1036 17.6666 13.5452 16.882 14.7475C17.6163 15.2973 18.4858 15.5888 19.3749 15.5834C20.5739 15.5834 21.7238 15.061 22.5716 14.1311C23.4195 13.2012 23.8958 11.9401 23.8958 10.625C23.8958 9.31 23.4195 8.04883 22.5716 7.11896C21.7238 6.1891 20.5739 5.6667 19.3749 5.6667Z" fill="black"/>
</svg>
