<svg width="51" height="56" viewBox="0 0 51 56" fill="none" xmlns="http://www.w3.org/2000/svg">
<path d="M30.8125 49V37.3333C30.8125 36.7145 30.5886 36.121 30.1901 35.6834C29.7916 35.2458 29.2511 35 28.6875 35H22.3125C21.7489 35 21.2084 35.2458 20.8099 35.6834C20.4114 36.121 20.1875 36.7145 20.1875 37.3333V49" stroke="black" stroke-linecap="round" stroke-linejoin="round"/>
<path d="M10.625 25.6667V39.6667C10.625 44.0673 10.625 46.2653 11.8703 47.6327C13.1155 49 15.1173 49 19.125 49H31.875C35.8828 49 37.8845 49 39.1298 47.6327C40.375 46.2653 40.375 44.0673 40.375 39.6667V25.6667M9.81964 10.535C10.2064 8.83633 10.3998 7.98933 10.9756 7.49467C11.5536 7 12.3505 7 13.9443 7H37.0558C38.6495 7 39.4464 7 40.0244 7.49467C40.5981 7.98933 40.7936 8.83633 41.1804 10.535L43.7368 21.7677C43.9429 22.673 44.047 23.1233 44.0236 23.492C43.9946 23.9569 43.8394 24.4017 43.578 24.7689C43.3167 25.1361 42.9612 25.409 42.5574 25.5523C42.2386 25.6667 41.8051 25.6667 40.936 25.6667C39.8034 25.6667 39.236 25.6667 38.7621 25.5453C38.1051 25.3773 37.494 25.0399 36.9793 24.5612C36.4646 24.0824 36.061 23.476 35.802 22.792C35.6129 22.2973 35.5215 21.6953 35.3409 20.4983C35.2899 20.1623 35.2644 19.9943 35.2346 19.95C35.2149 19.9201 35.1891 19.8958 35.1591 19.879C35.1292 19.8622 35.0961 19.8535 35.0625 19.8535C35.0289 19.8535 34.9958 19.8622 34.9659 19.879C34.936 19.8958 34.9101 19.9201 34.8904 19.95C34.8606 19.9943 34.8351 20.16 34.7841 20.4983L34.612 21.6393C34.4739 22.7379 33.984 23.7465 33.2302 24.4845C32.4763 25.2225 31.5077 25.6416 30.498 25.6667H30.0645C29.0548 25.6416 28.0862 25.2225 27.3324 24.4845C26.5785 23.7465 26.0886 22.7379 25.9505 21.6393L25.7784 20.496C25.7274 20.1623 25.7019 19.9943 25.6721 19.95C25.6524 19.9201 25.6266 19.8958 25.5967 19.879C25.5667 19.8622 25.5336 19.8535 25.5 19.8535C25.4664 19.8535 25.4333 19.8622 25.4034 19.879C25.3735 19.8958 25.3476 19.9201 25.3279 19.95C25.2981 19.9943 25.2726 20.16 25.2216 20.4983L25.0495 21.6393C24.9114 22.7379 24.4215 23.7465 23.6677 24.4845C22.9138 25.2225 21.9452 25.6416 20.9355 25.6667H20.502C19.5299 25.6417 18.595 25.2514 17.8532 24.5609C17.1115 23.8705 16.6078 22.9216 16.4263 21.8727C16.4109 21.7954 16.3982 21.7176 16.388 21.6393L16.2159 20.496C16.1649 20.1623 16.1394 19.9943 16.1096 19.95C16.0899 19.9201 16.0641 19.8958 16.0341 19.879C16.0042 19.8622 15.9711 19.8535 15.9375 19.8535C15.9039 19.8535 15.8708 19.8622 15.8409 19.879C15.811 19.8958 15.7851 19.9201 15.7654 19.95C15.7356 19.9943 15.7101 20.16 15.6591 20.4983C15.4785 21.6977 15.3871 22.295 15.198 22.792C14.9392 23.4757 14.536 24.0819 14.0217 24.5607C13.5073 25.0395 12.8966 25.377 12.24 25.5453C11.764 25.6667 11.1988 25.6667 10.064 25.6667C9.19489 25.6667 8.76139 25.6667 8.44264 25.5523C8.03881 25.409 7.68332 25.1361 7.42199 24.7689C7.16066 24.4017 7.00547 23.9569 6.97639 23.492C6.95514 23.1233 7.05714 22.673 7.26327 21.7677L9.81964 10.535Z" stroke="black"/>
</svg>
